Information about the quality can be found in the video and audio information and also in the title of the torrent. I only upload episodes in HD quality (or WEB-DL that is HD without the advertisements) or dvd's that have been converted from HD quality (custom dvd's) or retail versions.

More information about this series can be found at IMDB: http://www.imdb.com/title/tt1442065/

Video and audio information:
~~~~~~~~~~~~~~~~~~~~~~
Format                           : Matroska
Format version                   : Version 2
File size                        : 891 MiB
Duration                         : 40mn 50s
Overall bit rate                 : 3 051 Kbps
Writing application              : x264.exe
Writing library                  : mkv2rls x264-tv version built on 2011. febr. 17

Video
ID                               : 1
Format                           : AVC
Format/Info                      : Advanced Video Codec
Format profile                   : High@L4.1
Format settings, CABAC           : Yes
Format settings, ReFrames        : 5 frames
Codec ID                         : V_MPEG4/ISO/AVC
Duration                         : 40mn 50s
Bit rate                         : 2 607 Kbps
Width                            : 1 276 pixels
Height                           : 712 pixels
Display aspect ratio             : 16:9
Frame rate                       : 23.976 fps
Color space                      : YUV
Chroma subsampling               : 4:2:0
Bit depth                        : 8 bits
Scan type                        : Progressive
Bits/(Pixel*Frame)               : 0.120
Stream size                      : 761 MiB (85%)
Writing library                  : x264 core 116 r2074 2641b9e
Encoding settings                : cabac=1 / ref=5 / deblock=1:0:0 / analyse=0x3:0x113 / me=umh / subme=8 / psy=1 / psy_rd=1.00:0.00 / mixed_ref=1 / me_range=16 / chroma_me=1 / trellis=1 / 8x8dct=1 / cqm=0 / deadzone=21,11 / fast_pskip=1 / chroma_qp_offset=-2 / threads=16 / sliced_threads=0 / nr=0 / decimate=1 / interlaced=0 / bluray_compat=0 / constrained_intra=0 / bframes=3 / b_pyramid=2 / b_adapt=2 / b_bias=0 / direct=3 / weightb=1 / open_gop=0 / weightp=2 / keyint=250 / keyint_min=23 / scenecut=40 / intra_refresh=0 / rc_lookahead=50 / rc=crf / mbtree=1 / crf=19.0 / qcomp=0.60 / qpmin=0 / qpmax=69 / qpstep=4 / ip_ratio=1.40 / aq=1:1.00
Language                         : English

Audio
ID                               : 2
Format                           : AC-3
Format/Info                      : Audio Coding 3
Mode extension                   : CM (complete main)
Codec ID                         : A_AC3
Duration                         : 40mn 50s
Bit rate mode                    : Constant
Bit rate                         : 384 Kbps
Channel(s)                       : 6 channels
Channel positions                : Front: L C R, Side: L R, LFE
Sampling rate                    : 48.0 KHz
Bit depth                        : 16 bits
Compression mode                 : Lossy
Stream size                      : 112 MiB (13%)
Language                         : English

Stop by at our forum at http://black-sam.org
Kom ook eens kijken op ons gezellige forum:  http://black-sam.org
